<mxfile host="app.diagrams.net" agent="Mozilla/5.0 (Windows NT 10.0; Win64; x64) AppleWebKit/537.36 (KHTML, like Gecko) Chrome/127.0.0.0 Safari/537.36" version="24.7.7">
  <diagram name="Page-1" id="74e2e168-ea6b-b213-b513-2b3c1d86103e">
    <mxGraphModel dx="1434" dy="780" grid="1" gridSize="10" guides="1" tooltips="1" connect="1" arrows="1" fold="1" page="1" pageScale="1" pageWidth="1100" pageHeight="850" background="none" math="0" shadow="0">
      <root>
        <mxCell id="0" />
        <mxCell id="1" parent="0" />
        <mxCell id="77e6c97f196da883-1" value="Pool" style="swimlane;html=1;childLayout=stackLayout;startSize=20;rounded=0;shadow=0;labelBackgroundColor=none;strokeWidth=1;fontFamily=Verdana;fontSize=8;align=center;" parent="1" vertex="1">
          <mxGeometry x="20" y="40" width="1040" height="750" as="geometry" />
        </mxCell>
        <mxCell id="77e6c97f196da883-2" value="Lane 1" style="swimlane;html=1;startSize=20;" parent="77e6c97f196da883-1" vertex="1">
          <mxGeometry y="20" width="160" height="730" as="geometry" />
        </mxCell>
        <mxCell id="X6GmNbcSf4BftS5Mua_3-17" value="INICIO" style="ellipse;whiteSpace=wrap;html=1;" vertex="1" parent="77e6c97f196da883-2">
          <mxGeometry x="10" y="50" width="120" height="80" as="geometry" />
        </mxCell>
        <mxCell id="77e6c97f196da883-3" value="Lane 2" style="swimlane;html=1;startSize=20;" parent="77e6c97f196da883-1" vertex="1">
          <mxGeometry x="160" y="20" width="210" height="730" as="geometry" />
        </mxCell>
        <mxCell id="X6GmNbcSf4BftS5Mua_3-32" value="DIGITE O NUMERO DESEJADO" style="rounded=0;whiteSpace=wrap;html=1;" vertex="1" parent="77e6c97f196da883-3">
          <mxGeometry x="40" y="60" width="120" height="60" as="geometry" />
        </mxCell>
        <mxCell id="77e6c97f196da883-4" value="Lane 3" style="swimlane;html=1;startSize=20;" parent="77e6c97f196da883-1" vertex="1">
          <mxGeometry x="370" y="20" width="180" height="730" as="geometry" />
        </mxCell>
        <mxCell id="X6GmNbcSf4BftS5Mua_3-20" style="edgeStyle=orthogonalEdgeStyle;rounded=0;orthogonalLoop=1;jettySize=auto;html=1;entryX=0.5;entryY=0;entryDx=0;entryDy=0;" edge="1" parent="77e6c97f196da883-4" source="X6GmNbcSf4BftS5Mua_3-1" target="X6GmNbcSf4BftS5Mua_3-19">
          <mxGeometry relative="1" as="geometry" />
        </mxCell>
        <mxCell id="X6GmNbcSf4BftS5Mua_3-27" value="NÃO" style="edgeLabel;html=1;align=center;verticalAlign=middle;resizable=0;points=[];" vertex="1" connectable="0" parent="X6GmNbcSf4BftS5Mua_3-20">
          <mxGeometry x="-0.1781" y="1" relative="1" as="geometry">
            <mxPoint as="offset" />
          </mxGeometry>
        </mxCell>
        <mxCell id="X6GmNbcSf4BftS5Mua_3-1" value="NUMERO &amp;gt; 0" style="rhombus;whiteSpace=wrap;html=1;rounded=0;shadow=0;labelBackgroundColor=none;strokeWidth=1;fontFamily=Verdana;fontSize=8;align=center;" vertex="1" parent="77e6c97f196da883-4">
          <mxGeometry x="20" y="43.75" width="140" height="92.5" as="geometry" />
        </mxCell>
        <mxCell id="X6GmNbcSf4BftS5Mua_3-24" value="" style="edgeStyle=orthogonalEdgeStyle;rounded=0;orthogonalLoop=1;jettySize=auto;html=1;entryX=0.5;entryY=0;entryDx=0;entryDy=0;" edge="1" parent="77e6c97f196da883-4" source="X6GmNbcSf4BftS5Mua_3-19" target="X6GmNbcSf4BftS5Mua_3-35">
          <mxGeometry relative="1" as="geometry">
            <mxPoint x="90" y="500" as="targetPoint" />
          </mxGeometry>
        </mxCell>
        <mxCell id="X6GmNbcSf4BftS5Mua_3-26" value="NÃO" style="edgeLabel;html=1;align=center;verticalAlign=middle;resizable=0;points=[];" vertex="1" connectable="0" parent="X6GmNbcSf4BftS5Mua_3-24">
          <mxGeometry x="0.0078" relative="1" as="geometry">
            <mxPoint as="offset" />
          </mxGeometry>
        </mxCell>
        <mxCell id="X6GmNbcSf4BftS5Mua_3-19" value="&amp;nbsp;NUMERO &amp;lt; 0" style="rhombus;whiteSpace=wrap;html=1;rounded=0;shadow=0;labelBackgroundColor=none;strokeWidth=1;fontFamily=Verdana;fontSize=8;align=center;" vertex="1" parent="77e6c97f196da883-4">
          <mxGeometry x="20" y="272.5" width="140" height="92.5" as="geometry" />
        </mxCell>
        <mxCell id="X6GmNbcSf4BftS5Mua_3-35" value="NUMERO É 0" style="rounded=0;whiteSpace=wrap;html=1;" vertex="1" parent="77e6c97f196da883-4">
          <mxGeometry x="30" y="500" width="120" height="60" as="geometry" />
        </mxCell>
        <mxCell id="77e6c97f196da883-5" value="Lane 4" style="swimlane;html=1;startSize=20;" parent="77e6c97f196da883-1" vertex="1">
          <mxGeometry x="550" y="20" width="160" height="730" as="geometry" />
        </mxCell>
        <mxCell id="77e6c97f196da883-6" value="Lane 5" style="swimlane;html=1;startSize=20;" parent="77e6c97f196da883-1" vertex="1">
          <mxGeometry x="710" y="20" width="170" height="730" as="geometry" />
        </mxCell>
        <mxCell id="X6GmNbcSf4BftS5Mua_3-25" value="FIM" style="ellipse;whiteSpace=wrap;html=1;" vertex="1" parent="77e6c97f196da883-6">
          <mxGeometry x="30" y="490" width="120" height="80" as="geometry" />
        </mxCell>
        <mxCell id="X6GmNbcSf4BftS5Mua_3-38" style="edgeStyle=orthogonalEdgeStyle;rounded=0;orthogonalLoop=1;jettySize=auto;html=1;entryX=1;entryY=0.5;entryDx=0;entryDy=0;" edge="1" parent="77e6c97f196da883-6" source="X6GmNbcSf4BftS5Mua_3-33" target="X6GmNbcSf4BftS5Mua_3-25">
          <mxGeometry relative="1" as="geometry">
            <Array as="points">
              <mxPoint x="250" y="90" />
              <mxPoint x="250" y="530" />
            </Array>
          </mxGeometry>
        </mxCell>
        <mxCell id="X6GmNbcSf4BftS5Mua_3-33" value="POSITIVO" style="rounded=0;whiteSpace=wrap;html=1;" vertex="1" parent="77e6c97f196da883-6">
          <mxGeometry x="30" y="60" width="120" height="60" as="geometry" />
        </mxCell>
        <mxCell id="X6GmNbcSf4BftS5Mua_3-39" style="edgeStyle=orthogonalEdgeStyle;rounded=0;orthogonalLoop=1;jettySize=auto;html=1;entryX=0.5;entryY=0;entryDx=0;entryDy=0;" edge="1" parent="77e6c97f196da883-6" source="X6GmNbcSf4BftS5Mua_3-34" target="X6GmNbcSf4BftS5Mua_3-25">
          <mxGeometry relative="1" as="geometry" />
        </mxCell>
        <mxCell id="X6GmNbcSf4BftS5Mua_3-34" value="NEGATIVO" style="rounded=0;whiteSpace=wrap;html=1;" vertex="1" parent="77e6c97f196da883-6">
          <mxGeometry x="30" y="288.75" width="120" height="60" as="geometry" />
        </mxCell>
        <mxCell id="77e6c97f196da883-7" value="Lane 6" style="swimlane;html=1;startSize=20;" parent="77e6c97f196da883-1" vertex="1">
          <mxGeometry x="880" y="20" width="160" height="730" as="geometry" />
        </mxCell>
        <mxCell id="X6GmNbcSf4BftS5Mua_3-8" style="edgeStyle=orthogonalEdgeStyle;rounded=0;orthogonalLoop=1;jettySize=auto;html=1;entryX=0;entryY=0.5;entryDx=0;entryDy=0;" edge="1" parent="77e6c97f196da883-1" source="X6GmNbcSf4BftS5Mua_3-1" target="X6GmNbcSf4BftS5Mua_3-33">
          <mxGeometry relative="1" as="geometry">
            <mxPoint x="740" y="110" as="targetPoint" />
          </mxGeometry>
        </mxCell>
        <mxCell id="X6GmNbcSf4BftS5Mua_3-12" value="SIM" style="edgeLabel;html=1;align=center;verticalAlign=middle;resizable=0;points=[];" vertex="1" connectable="0" parent="X6GmNbcSf4BftS5Mua_3-8">
          <mxGeometry x="-0.2" y="-1" relative="1" as="geometry">
            <mxPoint y="1" as="offset" />
          </mxGeometry>
        </mxCell>
        <mxCell id="X6GmNbcSf4BftS5Mua_3-21" style="edgeStyle=orthogonalEdgeStyle;rounded=0;orthogonalLoop=1;jettySize=auto;html=1;entryX=0;entryY=0.5;entryDx=0;entryDy=0;" edge="1" parent="77e6c97f196da883-1" source="X6GmNbcSf4BftS5Mua_3-19" target="X6GmNbcSf4BftS5Mua_3-34">
          <mxGeometry relative="1" as="geometry">
            <mxPoint x="740" y="339.29999999999995" as="targetPoint" />
          </mxGeometry>
        </mxCell>
        <mxCell id="X6GmNbcSf4BftS5Mua_3-22" value="&lt;div&gt;SIM&lt;br&gt;&lt;/div&gt;" style="edgeLabel;html=1;align=center;verticalAlign=middle;resizable=0;points=[];" vertex="1" connectable="0" parent="X6GmNbcSf4BftS5Mua_3-21">
          <mxGeometry x="-0.1004" y="-1" relative="1" as="geometry">
            <mxPoint as="offset" />
          </mxGeometry>
        </mxCell>
        <mxCell id="X6GmNbcSf4BftS5Mua_3-36" style="edgeStyle=orthogonalEdgeStyle;rounded=0;orthogonalLoop=1;jettySize=auto;html=1;entryX=0;entryY=0.5;entryDx=0;entryDy=0;" edge="1" parent="77e6c97f196da883-1" source="X6GmNbcSf4BftS5Mua_3-17" target="X6GmNbcSf4BftS5Mua_3-32">
          <mxGeometry relative="1" as="geometry" />
        </mxCell>
        <mxCell id="X6GmNbcSf4BftS5Mua_3-37" style="edgeStyle=orthogonalEdgeStyle;rounded=0;orthogonalLoop=1;jettySize=auto;html=1;entryX=0;entryY=0.5;entryDx=0;entryDy=0;" edge="1" parent="77e6c97f196da883-1" source="X6GmNbcSf4BftS5Mua_3-32" target="X6GmNbcSf4BftS5Mua_3-1">
          <mxGeometry relative="1" as="geometry" />
        </mxCell>
        <mxCell id="X6GmNbcSf4BftS5Mua_3-40" style="edgeStyle=orthogonalEdgeStyle;rounded=0;orthogonalLoop=1;jettySize=auto;html=1;entryX=0;entryY=0.5;entryDx=0;entryDy=0;" edge="1" parent="77e6c97f196da883-1" source="X6GmNbcSf4BftS5Mua_3-35" target="X6GmNbcSf4BftS5Mua_3-25">
          <mxGeometry relative="1" as="geometry" />
        </mxCell>
      </root>
    </mxGraphModel>
  </diagram>
</mxfile>
